<mxfile host="app.diagrams.net" modified="2023-06-13T07:45:12.418Z" agent="5.0 (Windows NT 10.0; Win64; x64) AppleWebKit/537.36 (KHTML, like Gecko) Chrome/96.0.4664.45 Safari/537.36" etag="Hgp61CZBGYKD5IDS2_fS" version="20.8.21" type="github">
  <diagram id="C5RBs43oDa-KdzZeNtuy" name="Page-1">
    <mxGraphModel dx="1709" dy="919" grid="1" gridSize="10" guides="1" tooltips="1" connect="1" arrows="1" fold="1" page="1" pageScale="1" pageWidth="827" pageHeight="1169" math="0" shadow="0">
      <root>
        <mxCell id="WIyWlLk6GJQsqaUBKTNV-0" />
        <mxCell id="WIyWlLk6GJQsqaUBKTNV-1" parent="WIyWlLk6GJQsqaUBKTNV-0" />
        <mxCell id="WIyWlLk6GJQsqaUBKTNV-2" value="" style="rounded=0;html=1;jettySize=auto;orthogonalLoop=1;fontSize=11;endArrow=block;endFill=0;endSize=8;strokeWidth=1;shadow=0;labelBackgroundColor=none;edgeStyle=orthogonalEdgeStyle;entryX=0.5;entryY=0;entryDx=0;entryDy=0;" parent="WIyWlLk6GJQsqaUBKTNV-1" source="WIyWlLk6GJQsqaUBKTNV-3" target="WIyWlLk6GJQsqaUBKTNV-11" edge="1">
          <mxGeometry relative="1" as="geometry">
            <Array as="points">
              <mxPoint x="308" y="170" />
            </Array>
          </mxGeometry>
        </mxCell>
        <mxCell id="WIyWlLk6GJQsqaUBKTNV-3" value="Auto App AS400" style="rounded=0;whiteSpace=wrap;html=1;fontSize=12;glass=0;strokeWidth=1;shadow=0;" parent="WIyWlLk6GJQsqaUBKTNV-1" vertex="1">
          <mxGeometry x="348" y="110" width="120" height="40" as="geometry" />
        </mxCell>
        <mxCell id="WIyWlLk6GJQsqaUBKTNV-4" value="Yes" style="rounded=0;html=1;jettySize=auto;orthogonalLoop=1;fontSize=11;endArrow=block;endFill=0;endSize=8;strokeWidth=1;shadow=0;labelBackgroundColor=none;edgeStyle=orthogonalEdgeStyle;entryX=0;entryY=0.5;entryDx=0;entryDy=0;" parent="WIyWlLk6GJQsqaUBKTNV-1" source="WIyWlLk6GJQsqaUBKTNV-6" target="WIyWlLk6GJQsqaUBKTNV-3" edge="1">
          <mxGeometry x="-0.6842" y="-20" relative="1" as="geometry">
            <mxPoint as="offset" />
            <mxPoint x="308" y="320" as="targetPoint" />
            <Array as="points">
              <mxPoint x="198" y="420" />
              <mxPoint x="198" y="130" />
            </Array>
          </mxGeometry>
        </mxCell>
        <mxCell id="WIyWlLk6GJQsqaUBKTNV-5" value="No" style="edgeStyle=orthogonalEdgeStyle;rounded=0;html=1;jettySize=auto;orthogonalLoop=1;fontSize=11;endArrow=block;endFill=0;endSize=8;strokeWidth=1;shadow=0;labelBackgroundColor=none;" parent="WIyWlLk6GJQsqaUBKTNV-1" source="WIyWlLk6GJQsqaUBKTNV-6" target="WIyWlLk6GJQsqaUBKTNV-7" edge="1">
          <mxGeometry x="-0.4286" y="10" relative="1" as="geometry">
            <mxPoint as="offset" />
          </mxGeometry>
        </mxCell>
        <mxCell id="WIyWlLk6GJQsqaUBKTNV-6" value="Fraud&lt;br&gt;Request&lt;br&gt;Doc/Info?" style="rhombus;whiteSpace=wrap;html=1;shadow=0;fontFamily=Helvetica;fontSize=12;align=center;strokeWidth=1;spacing=6;spacingTop=-4;" parent="WIyWlLk6GJQsqaUBKTNV-1" vertex="1">
          <mxGeometry x="238" y="380" width="100" height="80" as="geometry" />
        </mxCell>
        <mxCell id="WIyWlLk6GJQsqaUBKTNV-7" value="Known Fraud/Clean" style="rounded=0;whiteSpace=wrap;html=1;fontSize=12;glass=0;strokeWidth=1;shadow=0;" parent="WIyWlLk6GJQsqaUBKTNV-1" vertex="1">
          <mxGeometry x="228" y="530" width="120" height="40" as="geometry" />
        </mxCell>
        <mxCell id="WIyWlLk6GJQsqaUBKTNV-11" value="P59&lt;br&gt;&lt;font style=&quot;font-size: 10px;&quot;&gt;(Fraud Guidline + Rules)&lt;/font&gt;" style="rounded=0;whiteSpace=wrap;html=1;fontSize=12;glass=0;strokeWidth=1;shadow=0;" parent="WIyWlLk6GJQsqaUBKTNV-1" vertex="1">
          <mxGeometry x="248" y="210" width="120" height="60" as="geometry" />
        </mxCell>
        <mxCell id="WIyWlLk6GJQsqaUBKTNV-12" value="Instinct&lt;br&gt;&lt;font style=&quot;font-size: 10px;&quot;&gt;(as is 55 rules)&lt;/font&gt;" style="rounded=0;whiteSpace=wrap;html=1;fontSize=12;glass=0;strokeWidth=1;shadow=0;" parent="WIyWlLk6GJQsqaUBKTNV-1" vertex="1">
          <mxGeometry x="458" y="210" width="120" height="60" as="geometry" />
        </mxCell>
        <mxCell id="dICTuY7nN_zT0jJzr2v3-0" value="&lt;h1&gt;&lt;span style=&quot;background-color: rgb(0, 0, 0);&quot;&gt;&lt;font color=&quot;#ffffff&quot;&gt;&amp;nbsp; Fraud Workflow&amp;nbsp;&amp;nbsp;&lt;/font&gt;&lt;/span&gt;&lt;/h1&gt;&lt;p&gt;&lt;br&gt;&lt;/p&gt;" style="text;html=1;spacing=5;spacingTop=-20;whiteSpace=wrap;overflow=hidden;rounded=0;" vertex="1" parent="WIyWlLk6GJQsqaUBKTNV-1">
          <mxGeometry x="30" y="10" width="230" height="40" as="geometry" />
        </mxCell>
        <mxCell id="dICTuY7nN_zT0jJzr2v3-3" value="" style="line;strokeWidth=2;direction=south;html=1;" vertex="1" parent="WIyWlLk6GJQsqaUBKTNV-1">
          <mxGeometry x="121" y="110" width="10" height="560" as="geometry" />
        </mxCell>
        <mxCell id="dICTuY7nN_zT0jJzr2v3-5" value="CA" style="text;strokeColor=none;fillColor=none;html=1;fontSize=24;fontStyle=1;verticalAlign=middle;align=center;" vertex="1" parent="WIyWlLk6GJQsqaUBKTNV-1">
          <mxGeometry x="8" y="110" width="100" height="40" as="geometry" />
        </mxCell>
        <mxCell id="dICTuY7nN_zT0jJzr2v3-22" value="" style="rounded=0;html=1;jettySize=auto;orthogonalLoop=1;fontSize=11;endArrow=block;endFill=0;endSize=8;strokeWidth=1;shadow=0;labelBackgroundColor=none;edgeStyle=orthogonalEdgeStyle;entryX=0.5;entryY=0;entryDx=0;entryDy=0;exitX=0.5;exitY=1;exitDx=0;exitDy=0;" edge="1" parent="WIyWlLk6GJQsqaUBKTNV-1" source="WIyWlLk6GJQsqaUBKTNV-3" target="WIyWlLk6GJQsqaUBKTNV-12">
          <mxGeometry relative="1" as="geometry">
            <mxPoint x="418" y="160" as="sourcePoint" />
            <mxPoint x="318" y="220" as="targetPoint" />
            <Array as="points">
              <mxPoint x="408" y="170" />
              <mxPoint x="518" y="170" />
            </Array>
          </mxGeometry>
        </mxCell>
        <mxCell id="dICTuY7nN_zT0jJzr2v3-23" value="" style="rounded=0;html=1;jettySize=auto;orthogonalLoop=1;fontSize=11;endArrow=block;endFill=0;endSize=8;strokeWidth=1;shadow=0;labelBackgroundColor=none;edgeStyle=orthogonalEdgeStyle;exitX=0.25;exitY=1;exitDx=0;exitDy=0;" edge="1" parent="WIyWlLk6GJQsqaUBKTNV-1" source="WIyWlLk6GJQsqaUBKTNV-12">
          <mxGeometry relative="1" as="geometry">
            <mxPoint x="458" y="340" as="sourcePoint" />
            <mxPoint x="518" y="560" as="targetPoint" />
            <Array as="points">
              <mxPoint x="488" y="560" />
            </Array>
          </mxGeometry>
        </mxCell>
        <mxCell id="dICTuY7nN_zT0jJzr2v3-24" value="" style="endArrow=none;dashed=1;html=1;rounded=0;fontSize=10;exitX=1;exitY=0.5;exitDx=0;exitDy=0;fillColor=#0050ef;strokeColor=#001DBC;" edge="1" parent="WIyWlLk6GJQsqaUBKTNV-1" source="dICTuY7nN_zT0jJzr2v3-25">
          <mxGeometry width="50" height="50" relative="1" as="geometry">
            <mxPoint x="778" y="570" as="sourcePoint" />
            <mxPoint x="308" y="180" as="targetPoint" />
            <Array as="points">
              <mxPoint x="808" y="565" />
              <mxPoint x="808" y="370" />
              <mxPoint x="808" y="180" />
            </Array>
          </mxGeometry>
        </mxCell>
        <mxCell id="dICTuY7nN_zT0jJzr2v3-26" value="" style="group" vertex="1" connectable="0" parent="WIyWlLk6GJQsqaUBKTNV-1">
          <mxGeometry x="518" y="510" width="170" height="110" as="geometry" />
        </mxCell>
        <mxCell id="dICTuY7nN_zT0jJzr2v3-20" value="&lt;div style=&quot;&quot;&gt;&lt;div&gt;&lt;br&gt;&lt;/div&gt;&lt;/div&gt;" style="rounded=0;whiteSpace=wrap;html=1;fontSize=12;glass=0;strokeWidth=1;shadow=0;align=left;" vertex="1" parent="dICTuY7nN_zT0jJzr2v3-26">
          <mxGeometry width="170" height="110" as="geometry" />
        </mxCell>
        <mxCell id="dICTuY7nN_zT0jJzr2v3-25" value="&lt;ul&gt;&lt;li&gt;&lt;font style=&quot;font-size: 12px;&quot;&gt;&lt;span style=&quot;background-color: initial;&quot;&gt;False Positive (Clean)&lt;/span&gt;&lt;/font&gt;&lt;/li&gt;&lt;li&gt;&lt;font style=&quot;font-size: 12px;&quot;&gt;&lt;span style=&quot;background-color: initial;&quot;&gt;Suspicious&lt;/span&gt;&lt;/font&gt;&lt;/li&gt;&lt;li&gt;&lt;font style=&quot;font-size: 12px;&quot;&gt;&lt;span style=&quot;background-color: initial;&quot;&gt;Known Fraud&lt;/span&gt;&lt;/font&gt;&lt;/li&gt;&lt;/ul&gt;" style="rounded=0;whiteSpace=wrap;html=1;fontSize=10;dashed=1;align=left;" vertex="1" parent="dICTuY7nN_zT0jJzr2v3-26">
          <mxGeometry x="5" y="25" width="160" height="60" as="geometry" />
        </mxCell>
        <mxCell id="dICTuY7nN_zT0jJzr2v3-27" value="&lt;font color=&quot;#0000ff&quot; style=&quot;font-size: 8px;&quot;&gt;PD Inform CA&lt;/font&gt;" style="text;html=1;align=center;verticalAlign=middle;whiteSpace=wrap;rounded=0;fontSize=12;" vertex="1" parent="WIyWlLk6GJQsqaUBKTNV-1">
          <mxGeometry x="703" y="535" width="95.5" height="30" as="geometry" />
        </mxCell>
        <mxCell id="dICTuY7nN_zT0jJzr2v3-30" value="&lt;font style=&quot;font-size: 8px;&quot;&gt;HFP / Suspect&lt;/font&gt;" style="text;html=1;strokeColor=#001DBC;fillColor=#0050ef;align=center;verticalAlign=middle;whiteSpace=wrap;rounded=0;fontSize=8;fontColor=#ffffff;fontStyle=1" vertex="1" parent="WIyWlLk6GJQsqaUBKTNV-1">
          <mxGeometry x="438" y="310" width="100" height="30" as="geometry" />
        </mxCell>
        <mxCell id="dICTuY7nN_zT0jJzr2v3-41" value="" style="line;strokeWidth=0;direction=south;html=1;fontSize=8;fontColor=#FF0080;" vertex="1" parent="WIyWlLk6GJQsqaUBKTNV-1">
          <mxGeometry x="408" y="380" width="10" height="30" as="geometry" />
        </mxCell>
        <mxCell id="dICTuY7nN_zT0jJzr2v3-50" value="" style="group" vertex="1" connectable="0" parent="WIyWlLk6GJQsqaUBKTNV-1">
          <mxGeometry x="558" y="270" width="45" height="106" as="geometry" />
        </mxCell>
        <mxCell id="dICTuY7nN_zT0jJzr2v3-40" value="" style="line;strokeWidth=1;direction=south;html=1;fontSize=8;fontColor=#FF0080;" vertex="1" parent="dICTuY7nN_zT0jJzr2v3-50">
          <mxGeometry width="10" height="100" as="geometry" />
        </mxCell>
        <mxCell id="dICTuY7nN_zT0jJzr2v3-45" value="" style="line;strokeWidth=1;html=1;fontSize=8;fontColor=#FF0080;" vertex="1" parent="dICTuY7nN_zT0jJzr2v3-50">
          <mxGeometry x="5" y="31" width="40" height="10" as="geometry" />
        </mxCell>
        <mxCell id="dICTuY7nN_zT0jJzr2v3-47" value="" style="line;strokeWidth=1;html=1;fontSize=8;fontColor=#FF0080;" vertex="1" parent="dICTuY7nN_zT0jJzr2v3-50">
          <mxGeometry x="5" y="53" width="40" height="10" as="geometry" />
        </mxCell>
        <mxCell id="dICTuY7nN_zT0jJzr2v3-48" value="" style="line;strokeWidth=1;html=1;fontSize=8;fontColor=#FF0080;" vertex="1" parent="dICTuY7nN_zT0jJzr2v3-50">
          <mxGeometry x="5" y="76" width="40" height="10" as="geometry" />
        </mxCell>
        <mxCell id="dICTuY7nN_zT0jJzr2v3-49" value="" style="line;strokeWidth=1;html=1;fontSize=8;fontColor=#FF0080;" vertex="1" parent="dICTuY7nN_zT0jJzr2v3-50">
          <mxGeometry x="5" y="96" width="40" height="10" as="geometry" />
        </mxCell>
        <mxCell id="dICTuY7nN_zT0jJzr2v3-55" value="" style="group" vertex="1" connectable="0" parent="WIyWlLk6GJQsqaUBKTNV-1">
          <mxGeometry x="27" y="191.5" width="769" height="195" as="geometry" />
        </mxCell>
        <mxCell id="dICTuY7nN_zT0jJzr2v3-19" value="" style="group" vertex="1" connectable="0" parent="dICTuY7nN_zT0jJzr2v3-55">
          <mxGeometry width="769" height="127" as="geometry" />
        </mxCell>
        <mxCell id="dICTuY7nN_zT0jJzr2v3-16" value="" style="line;strokeWidth=2;direction=south;html=1;fontSize=10;" vertex="1" parent="dICTuY7nN_zT0jJzr2v3-19">
          <mxGeometry x="365.01866666666666" width="9.93548" height="93" as="geometry" />
        </mxCell>
        <mxCell id="dICTuY7nN_zT0jJzr2v3-18" value="" style="group" vertex="1" connectable="0" parent="dICTuY7nN_zT0jJzr2v3-19">
          <mxGeometry width="769" height="127" as="geometry" />
        </mxCell>
        <mxCell id="dICTuY7nN_zT0jJzr2v3-11" value="" style="group" vertex="1" connectable="0" parent="dICTuY7nN_zT0jJzr2v3-18">
          <mxGeometry y="2" width="153.79999999999998" height="90" as="geometry" />
        </mxCell>
        <mxCell id="dICTuY7nN_zT0jJzr2v3-2" value="" style="line;strokeWidth=2;html=1;" vertex="1" parent="dICTuY7nN_zT0jJzr2v3-11">
          <mxGeometry width="148.83870967741933" height="2.8662420382165603" as="geometry" />
        </mxCell>
        <mxCell id="dICTuY7nN_zT0jJzr2v3-10" value="" style="line;strokeWidth=2;direction=south;html=1;fontSize=10;" vertex="1" parent="dICTuY7nN_zT0jJzr2v3-11">
          <mxGeometry x="143.87741935483868" y="1.1464968152866242" width="9.92258064516129" height="88.85350318471338" as="geometry" />
        </mxCell>
        <mxCell id="dICTuY7nN_zT0jJzr2v3-7" value="Fraud&lt;br&gt;PD" style="text;strokeColor=none;fillColor=none;html=1;fontSize=24;fontStyle=1;verticalAlign=middle;align=center;" vertex="1" parent="dICTuY7nN_zT0jJzr2v3-11">
          <mxGeometry x="-16" y="25.569999999999993" width="100" height="40" as="geometry" />
        </mxCell>
        <mxCell id="dICTuY7nN_zT0jJzr2v3-15" value="" style="line;strokeWidth=2;html=1;fontSize=10;" vertex="1" parent="dICTuY7nN_zT0jJzr2v3-18">
          <mxGeometry x="147.648" y="87" width="221.472" height="10" as="geometry" />
        </mxCell>
        <mxCell id="dICTuY7nN_zT0jJzr2v3-17" value="" style="line;strokeWidth=2;html=1;" vertex="1" parent="dICTuY7nN_zT0jJzr2v3-18">
          <mxGeometry x="369.11999999999995" width="399.88" height="2.87" as="geometry" />
        </mxCell>
        <mxCell id="dICTuY7nN_zT0jJzr2v3-51" value="&lt;font color=&quot;#000000&quot;&gt;Pending&lt;/font&gt;" style="text;html=1;strokeColor=none;fillColor=none;align=left;verticalAlign=middle;whiteSpace=wrap;rounded=0;fontSize=8;fontColor=#FF0080;" vertex="1" parent="dICTuY7nN_zT0jJzr2v3-18">
          <mxGeometry x="580" y="100" width="60" height="30" as="geometry" />
        </mxCell>
        <mxCell id="dICTuY7nN_zT0jJzr2v3-52" value="&lt;font color=&quot;#000000&quot;&gt;Approve&lt;/font&gt;" style="text;html=1;strokeColor=none;fillColor=none;align=left;verticalAlign=middle;whiteSpace=wrap;rounded=0;fontSize=8;fontColor=#FF0080;" vertex="1" parent="dICTuY7nN_zT0jJzr2v3-55">
          <mxGeometry x="579" y="122" width="60" height="30" as="geometry" />
        </mxCell>
        <mxCell id="dICTuY7nN_zT0jJzr2v3-53" value="&lt;font color=&quot;#000000&quot;&gt;Cancel&lt;/font&gt;" style="text;html=1;strokeColor=none;fillColor=none;align=left;verticalAlign=middle;whiteSpace=wrap;rounded=0;fontSize=8;fontColor=#FF0080;" vertex="1" parent="dICTuY7nN_zT0jJzr2v3-55">
          <mxGeometry x="578" y="145" width="60" height="30" as="geometry" />
        </mxCell>
        <mxCell id="dICTuY7nN_zT0jJzr2v3-54" value="&lt;font color=&quot;#000000&quot;&gt;Reject&lt;/font&gt;" style="text;html=1;strokeColor=none;fillColor=none;align=left;verticalAlign=middle;whiteSpace=wrap;rounded=0;fontSize=8;fontColor=#FF0080;" vertex="1" parent="dICTuY7nN_zT0jJzr2v3-55">
          <mxGeometry x="579" y="165" width="60" height="30" as="geometry" />
        </mxCell>
      </root>
    </mxGraphModel>
  </diagram>
</mxfile>
